G75*
%MOIN*%
%OFA0B0*%
%FSLAX24Y24*%
%IPPOS*%
%LPD*%
%AMOC8*
5,1,8,0,0,1.08239X$1,22.5*
%
%ADD10R,0.0709X0.0394*%
%ADD11R,0.0394X0.0472*%
%ADD12R,0.0472X0.0394*%
%ADD13R,0.0945X0.0709*%
%ADD14R,0.1614X0.0787*%
%ADD15R,0.0394X0.0567*%
%ADD16R,0.0472X0.0567*%
%ADD17R,0.0354X0.0315*%
%ADD18R,0.0472X0.0197*%
%ADD19R,0.0260X0.0800*%
%ADD20R,0.0440X0.1100*%
%ADD21R,0.0472X0.0315*%
%ADD22R,0.0217X0.0472*%
%ADD23R,0.0157X0.0276*%
%ADD24R,0.0394X0.0433*%
%ADD25R,0.0870X0.0240*%
%ADD26R,0.2756X0.2756*%
%ADD27R,0.1181X0.0630*%
D10*
X009609Y025199D03*
X009609Y026302D03*
D11*
X015514Y027680D03*
X015514Y028546D03*
X016695Y028546D03*
X016695Y027680D03*
X018270Y027680D03*
X018270Y028546D03*
X019451Y028546D03*
X019451Y027680D03*
X016302Y021853D03*
X016302Y020987D03*
X010790Y019097D03*
X010790Y018231D03*
X009609Y017522D03*
X009609Y016656D03*
X008428Y017050D03*
X008428Y017916D03*
X028506Y022562D03*
X029294Y022168D03*
X029294Y023034D03*
X028506Y023428D03*
X031656Y019491D03*
X031656Y018625D03*
X039530Y024924D03*
X039530Y025790D03*
X039215Y011735D03*
X039215Y010869D03*
X038270Y010829D03*
X038270Y011695D03*
X037247Y011735D03*
X037247Y010869D03*
X036302Y010829D03*
X036302Y011695D03*
X040239Y011735D03*
X040239Y010869D03*
X041262Y010869D03*
X041262Y011735D03*
D12*
X027758Y019845D03*
X026892Y019845D03*
X024766Y020022D03*
X023900Y020022D03*
X023870Y017928D03*
X023004Y017928D03*
X026892Y024176D03*
X027758Y024176D03*
X023034Y027325D03*
X022168Y027325D03*
X022168Y028506D03*
X023034Y028506D03*
X023034Y030081D03*
X022168Y030081D03*
X013191Y022207D03*
X012325Y022207D03*
X011617Y022207D03*
X010751Y022207D03*
X010751Y021026D03*
X011617Y021026D03*
X008861Y019845D03*
X007995Y019845D03*
X021276Y003876D03*
X022142Y003876D03*
X024451Y003762D03*
X025317Y003762D03*
X035593Y026341D03*
X036459Y026341D03*
D13*
X011577Y025760D03*
X011577Y026922D03*
X011577Y028516D03*
X011577Y024166D03*
D14*
X007384Y024569D03*
X003959Y024569D03*
D15*
X017109Y026577D03*
X017857Y026577D03*
X017857Y025711D03*
D16*
X017188Y025711D03*
D17*
X010003Y019038D03*
X010003Y018290D03*
X009176Y018664D03*
D18*
X026085Y022040D03*
X026085Y022414D03*
X026085Y022788D03*
X026085Y023162D03*
X027778Y023162D03*
X027778Y022788D03*
X027778Y022414D03*
X027778Y022040D03*
D19*
X030544Y020776D03*
X031044Y020776D03*
X031544Y020776D03*
X032044Y020776D03*
X032544Y020776D03*
X033044Y020776D03*
X033544Y020776D03*
X034044Y020776D03*
X034544Y020776D03*
X035044Y020776D03*
X035544Y020776D03*
X036044Y020776D03*
X036544Y020776D03*
X037044Y020776D03*
X037044Y024682D03*
X036544Y024682D03*
X036044Y024682D03*
X035544Y024682D03*
X035044Y024682D03*
X034544Y024682D03*
X034044Y024682D03*
X033544Y024682D03*
X033044Y024682D03*
X032544Y024682D03*
X032044Y024682D03*
X031544Y024682D03*
X031044Y024682D03*
X030544Y024682D03*
D20*
X036243Y017995D03*
X037243Y017995D03*
X038243Y017995D03*
X039243Y017995D03*
X040243Y017995D03*
X041243Y017995D03*
X041243Y014609D03*
X040243Y014609D03*
X039243Y014609D03*
X038243Y014609D03*
X037243Y014609D03*
X036243Y014609D03*
D21*
X036302Y010160D03*
X037247Y010160D03*
X038270Y010160D03*
X039215Y010160D03*
X040239Y010160D03*
X040239Y009451D03*
X039215Y009451D03*
X038270Y009451D03*
X037247Y009451D03*
X036302Y009451D03*
X041302Y009451D03*
X041302Y010160D03*
D22*
X034786Y010672D03*
X034412Y010672D03*
X034038Y010672D03*
X034038Y011695D03*
X034412Y011695D03*
X034786Y011695D03*
D23*
X022857Y013211D03*
X022601Y013211D03*
X022345Y013211D03*
X022345Y013880D03*
X022601Y013880D03*
X022857Y013880D03*
X022857Y008369D03*
X022601Y008369D03*
X022345Y008369D03*
X022345Y007699D03*
X022601Y007699D03*
X022857Y007699D03*
D24*
X016302Y008880D03*
X016302Y009550D03*
X016302Y012030D03*
X016302Y012699D03*
X022601Y012699D03*
X022601Y012030D03*
X022601Y009530D03*
X022601Y008861D03*
X028900Y008880D03*
X028900Y009550D03*
X028900Y012030D03*
X028900Y012699D03*
D25*
X020771Y019882D03*
X020771Y020382D03*
X020771Y020882D03*
X020771Y021382D03*
X020771Y022245D03*
X020771Y022745D03*
X020771Y023245D03*
X020771Y023745D03*
X018121Y023745D03*
X018121Y023245D03*
X018121Y022745D03*
X018121Y022245D03*
X018121Y021382D03*
X018121Y020882D03*
X018121Y020382D03*
X018121Y019882D03*
D26*
X004491Y017877D03*
D27*
X007207Y018782D03*
X007207Y016971D03*
M02*
