G75*
%MOIN*%
%OFA0B0*%
%FSLAX24Y24*%
%IPPOS*%
%LPD*%
%AMOC8*
5,1,8,0,0,1.08239X$1,22.5*
%
%ADD10C,0.1310*%
%ADD11C,0.0953*%
%ADD12C,0.0585*%
%ADD13R,0.0769X0.0454*%
%ADD14R,0.0454X0.0532*%
%ADD15C,0.0800*%
%ADD16R,0.0532X0.0454*%
%ADD17R,0.1005X0.0769*%
%ADD18R,0.1674X0.0847*%
%ADD19R,0.0454X0.0627*%
%ADD20R,0.0532X0.0627*%
%ADD21R,0.0860X0.0860*%
%ADD22C,0.0860*%
%ADD23R,0.0414X0.0375*%
%ADD24R,0.0532X0.0257*%
%ADD25R,0.0320X0.0860*%
%ADD26R,0.0500X0.1160*%
%ADD27R,0.0532X0.0375*%
%ADD28R,0.0277X0.0532*%
%ADD29R,0.0217X0.0336*%
%ADD30R,0.0454X0.0493*%
%ADD31R,0.0930X0.0300*%
%ADD32R,0.2816X0.2816*%
%ADD33R,0.1241X0.0690*%
%ADD34C,0.0330*%
D10*
X008851Y004589D03*
X036351Y004589D03*
X036351Y029589D03*
X008851Y029589D03*
D11*
X015121Y011971D03*
X017483Y011971D03*
X017483Y009609D03*
X015121Y009609D03*
X021420Y009609D03*
X023782Y009609D03*
X023782Y011971D03*
X021420Y011971D03*
X027719Y011971D03*
X030081Y011971D03*
X030081Y009609D03*
X027719Y009609D03*
D12*
X028506Y010396D03*
X029294Y010396D03*
X029294Y011184D03*
X028506Y011184D03*
X022995Y011184D03*
X022207Y011184D03*
X022207Y010396D03*
X022995Y010396D03*
X016695Y010396D03*
X015908Y010396D03*
X015908Y011184D03*
X016695Y011184D03*
X024176Y031262D03*
X025176Y031262D03*
X026176Y031262D03*
X027176Y031262D03*
X028176Y031262D03*
X029176Y031262D03*
X030176Y031262D03*
D13*
X009609Y026302D03*
X009609Y025199D03*
D14*
X015514Y027680D03*
X015514Y028546D03*
X016695Y028546D03*
X016695Y027680D03*
X018270Y027680D03*
X018270Y028546D03*
X019451Y028546D03*
X019451Y027680D03*
X016302Y021853D03*
X016302Y020987D03*
X010790Y019097D03*
X010790Y018231D03*
X009609Y017522D03*
X009609Y016656D03*
X008428Y017050D03*
X008428Y017916D03*
X028506Y022562D03*
X029294Y022168D03*
X029294Y023034D03*
X028506Y023428D03*
X031656Y019491D03*
X031656Y018625D03*
X039530Y024924D03*
X039530Y025790D03*
X039215Y011735D03*
X039215Y010869D03*
X038270Y010829D03*
X038270Y011695D03*
X037247Y011735D03*
X037247Y010869D03*
X036302Y010829D03*
X036302Y011695D03*
X040239Y011735D03*
X040239Y010869D03*
X041262Y010869D03*
X041262Y011735D03*
D15*
X041155Y021751D03*
X041055Y022751D03*
X041155Y023751D03*
X041055Y024751D03*
X041155Y025751D03*
D16*
X036459Y026341D03*
X035593Y026341D03*
X027758Y024176D03*
X026892Y024176D03*
X023034Y027325D03*
X022168Y027325D03*
X022168Y028506D03*
X023034Y028506D03*
X023034Y030081D03*
X022168Y030081D03*
X013191Y022207D03*
X012325Y022207D03*
X011617Y022207D03*
X010751Y022207D03*
X010751Y021026D03*
X011617Y021026D03*
X008861Y019845D03*
X007995Y019845D03*
X023004Y017928D03*
X023870Y017928D03*
X023900Y020022D03*
X024766Y020022D03*
X026892Y019845D03*
X027758Y019845D03*
X025317Y003762D03*
X024451Y003762D03*
X022142Y003876D03*
X021276Y003876D03*
D17*
X011577Y024166D03*
X011577Y025760D03*
X011577Y026922D03*
X011577Y028516D03*
D18*
X007384Y024569D03*
X003959Y024569D03*
D19*
X017109Y026577D03*
X017857Y026577D03*
X017857Y025711D03*
D20*
X017188Y025711D03*
D21*
X013850Y030081D03*
D22*
X015368Y030081D03*
X016606Y030081D03*
X018124Y030081D03*
D23*
X010003Y019038D03*
X010003Y018290D03*
X009176Y018664D03*
D24*
X026085Y022040D03*
X026085Y022414D03*
X026085Y022788D03*
X026085Y023162D03*
X027778Y023162D03*
X027778Y022788D03*
X027778Y022414D03*
X027778Y022040D03*
D25*
X030544Y020776D03*
X031044Y020776D03*
X031544Y020776D03*
X032044Y020776D03*
X032544Y020776D03*
X033044Y020776D03*
X033544Y020776D03*
X034044Y020776D03*
X034544Y020776D03*
X035044Y020776D03*
X035544Y020776D03*
X036044Y020776D03*
X036544Y020776D03*
X037044Y020776D03*
X037044Y024682D03*
X036544Y024682D03*
X036044Y024682D03*
X035544Y024682D03*
X035044Y024682D03*
X034544Y024682D03*
X034044Y024682D03*
X033544Y024682D03*
X033044Y024682D03*
X032544Y024682D03*
X032044Y024682D03*
X031544Y024682D03*
X031044Y024682D03*
X030544Y024682D03*
D26*
X036243Y017995D03*
X037243Y017995D03*
X038243Y017995D03*
X039243Y017995D03*
X040243Y017995D03*
X041243Y017995D03*
X041243Y014609D03*
X040243Y014609D03*
X039243Y014609D03*
X038243Y014609D03*
X037243Y014609D03*
X036243Y014609D03*
D27*
X036302Y010160D03*
X037247Y010160D03*
X038270Y010160D03*
X039215Y010160D03*
X040239Y010160D03*
X040239Y009451D03*
X039215Y009451D03*
X038270Y009451D03*
X037247Y009451D03*
X036302Y009451D03*
X041302Y009451D03*
X041302Y010160D03*
D28*
X034786Y010672D03*
X034412Y010672D03*
X034038Y010672D03*
X034038Y011695D03*
X034412Y011695D03*
X034786Y011695D03*
D29*
X022857Y013211D03*
X022601Y013211D03*
X022345Y013211D03*
X022345Y013880D03*
X022601Y013880D03*
X022857Y013880D03*
X022857Y008369D03*
X022601Y008369D03*
X022345Y008369D03*
X022345Y007699D03*
X022601Y007699D03*
X022857Y007699D03*
D30*
X022601Y008861D03*
X022601Y009530D03*
X022601Y012030D03*
X022601Y012699D03*
X028900Y012699D03*
X028900Y012030D03*
X028900Y009550D03*
X028900Y008880D03*
X016302Y008880D03*
X016302Y009550D03*
X016302Y012030D03*
X016302Y012699D03*
D31*
X018121Y019882D03*
X018121Y020382D03*
X018121Y020882D03*
X018121Y021382D03*
X018121Y022245D03*
X018121Y022745D03*
X018121Y023245D03*
X018121Y023745D03*
X020771Y023745D03*
X020771Y023245D03*
X020771Y022745D03*
X020771Y022245D03*
X020771Y021382D03*
X020771Y020882D03*
X020771Y020382D03*
X020771Y019882D03*
D32*
X004491Y017877D03*
D33*
X007207Y018782D03*
X007207Y016971D03*
D34*
X007247Y016302D03*
X008428Y016302D03*
X010220Y016705D03*
X011231Y016818D03*
X010396Y017877D03*
X013011Y018585D03*
X013940Y018270D03*
X014884Y017463D03*
X016105Y017916D03*
X017542Y018034D03*
X019018Y018054D03*
X020475Y018034D03*
X021814Y017995D03*
X022295Y018455D03*
X021636Y020026D03*
X024688Y018073D03*
X025908Y018073D03*
X027148Y018093D03*
X028467Y018093D03*
X028351Y018640D03*
X029884Y017758D03*
X030888Y017030D03*
X032050Y017483D03*
X032765Y016623D03*
X031991Y015908D03*
X032483Y014983D03*
X033625Y015514D03*
X035259Y015321D03*
X035271Y015751D03*
X035276Y016101D03*
X035199Y016695D03*
X033625Y018270D03*
X032889Y018424D03*
X032349Y018335D03*
X031258Y019043D03*
X030571Y019419D03*
X030723Y019818D03*
X031668Y019963D03*
X030372Y021502D03*
X030761Y021664D03*
X030081Y021814D03*
X029773Y023154D03*
X027716Y020275D03*
X025555Y022481D03*
X026144Y024176D03*
X025474Y026815D03*
X022365Y026095D03*
X021968Y025563D03*
X019949Y027662D03*
X019845Y028506D03*
X021420Y028506D03*
X021420Y030081D03*
X016694Y027100D03*
X016302Y025751D03*
X017089Y023782D03*
X015663Y023288D03*
X017089Y021420D03*
X015743Y020991D03*
X014727Y019451D03*
X012116Y020458D03*
X010790Y020632D03*
X009215Y020239D03*
X010790Y022601D03*
X013841Y016695D03*
X013073Y015770D03*
X010396Y014727D03*
X010396Y012758D03*
X010396Y010790D03*
X012384Y009707D03*
X012227Y008270D03*
X012483Y007050D03*
X010790Y006459D03*
X011971Y004884D03*
X013152Y004097D03*
X014727Y002916D03*
X015829Y003802D03*
X016735Y002837D03*
X018054Y003743D03*
X018644Y002817D03*
X020632Y003703D03*
X020869Y002837D03*
X022995Y002916D03*
X024963Y002916D03*
X026932Y002916D03*
X028506Y002916D03*
X030475Y003310D03*
X032443Y003310D03*
X032443Y004884D03*
X033625Y006066D03*
X032719Y007069D03*
X034806Y007247D03*
X032995Y008605D03*
X032680Y010062D03*
X033113Y010908D03*
X034431Y009851D03*
X034412Y012129D03*
X033408Y012877D03*
X033369Y014058D03*
X034806Y013546D03*
X035198Y014746D03*
X035406Y019019D03*
X034412Y022207D03*
X033625Y023782D03*
X035974Y025908D03*
X034018Y026144D03*
X032404Y027483D03*
X031695Y026105D03*
X039530Y021420D03*
X022974Y014939D03*
X022363Y014950D03*
X022601Y014215D03*
X022044Y013114D03*
X023174Y013078D03*
X023179Y008500D03*
X022029Y008452D03*
X022601Y007365D03*
X022836Y006863D03*
X022270Y006853D03*
X010396Y008821D03*
X003310Y023782D03*
X016006Y028526D03*
M02*
