G75*
%MOIN*%
%OFA0B0*%
%FSLAX24Y24*%
%IPPOS*%
%LPD*%
%AMOC8*
5,1,8,0,0,1.08239X$1,22.5*
%
%ADD10C,0.0160*%
%ADD11C,0.0080*%
%ADD12C,0.0060*%
%ADD13C,0.0030*%
D10*
X013940Y008034D02*
X013940Y012365D01*
X013940Y008034D02*
X014044Y007963D01*
X014150Y007895D01*
X014258Y007830D01*
X014368Y007769D01*
X014480Y007712D01*
X014594Y007657D01*
X014709Y007607D01*
X014825Y007559D01*
X014944Y007516D01*
X015063Y007476D01*
X015183Y007440D01*
X015305Y007407D01*
X015428Y007378D01*
X015551Y007353D01*
X015675Y007332D01*
X015800Y007315D01*
X015925Y007301D01*
X016050Y007292D01*
X016176Y007286D01*
X016302Y007284D01*
X016428Y007286D01*
X016554Y007292D01*
X016679Y007301D01*
X016804Y007315D01*
X016929Y007332D01*
X017053Y007353D01*
X017176Y007378D01*
X017299Y007407D01*
X017421Y007440D01*
X017541Y007476D01*
X017660Y007516D01*
X017779Y007559D01*
X017895Y007607D01*
X018010Y007657D01*
X018124Y007712D01*
X018236Y007769D01*
X018346Y007830D01*
X018454Y007895D01*
X018560Y007963D01*
X018664Y008034D01*
X018664Y012365D01*
X020239Y012365D02*
X020239Y008034D01*
X020239Y012365D02*
X020355Y012432D01*
X020473Y012496D01*
X020593Y012556D01*
X020714Y012613D01*
X020837Y012667D01*
X020962Y012716D01*
X021088Y012762D01*
X021215Y012805D01*
X021343Y012843D01*
X021473Y012878D01*
X021603Y012909D01*
X021735Y012936D01*
X021867Y012960D01*
X021999Y012979D01*
X022132Y012995D01*
X022266Y013007D01*
X022400Y013015D01*
X022534Y013019D01*
X022668Y013019D01*
X022802Y013015D01*
X022936Y013007D01*
X023070Y012995D01*
X023203Y012979D01*
X023335Y012960D01*
X023467Y012936D01*
X023599Y012909D01*
X023729Y012878D01*
X023859Y012843D01*
X023987Y012805D01*
X024114Y012762D01*
X024240Y012716D01*
X024365Y012667D01*
X024488Y012613D01*
X024609Y012556D01*
X024729Y012496D01*
X024847Y012432D01*
X024963Y012365D01*
X024963Y008034D01*
X026538Y008034D02*
X026538Y012365D01*
X026538Y008034D02*
X026642Y007963D01*
X026748Y007895D01*
X026856Y007830D01*
X026966Y007769D01*
X027078Y007712D01*
X027192Y007657D01*
X027307Y007607D01*
X027423Y007559D01*
X027542Y007516D01*
X027661Y007476D01*
X027781Y007440D01*
X027903Y007407D01*
X028026Y007378D01*
X028149Y007353D01*
X028273Y007332D01*
X028398Y007315D01*
X028523Y007301D01*
X028648Y007292D01*
X028774Y007286D01*
X028900Y007284D01*
X029026Y007286D01*
X029152Y007292D01*
X029277Y007301D01*
X029402Y007315D01*
X029527Y007332D01*
X029651Y007353D01*
X029774Y007378D01*
X029897Y007407D01*
X030019Y007440D01*
X030139Y007476D01*
X030258Y007516D01*
X030377Y007559D01*
X030493Y007607D01*
X030608Y007657D01*
X030722Y007712D01*
X030834Y007769D01*
X030944Y007830D01*
X031052Y007895D01*
X031158Y007963D01*
X031262Y008034D01*
X031262Y012365D01*
X031146Y012432D01*
X031028Y012496D01*
X030908Y012556D01*
X030787Y012613D01*
X030664Y012667D01*
X030539Y012716D01*
X030413Y012762D01*
X030286Y012805D01*
X030158Y012843D01*
X030028Y012878D01*
X029898Y012909D01*
X029766Y012936D01*
X029634Y012960D01*
X029502Y012979D01*
X029369Y012995D01*
X029235Y013007D01*
X029101Y013015D01*
X028967Y013019D01*
X028833Y013019D01*
X028699Y013015D01*
X028565Y013007D01*
X028431Y012995D01*
X028298Y012979D01*
X028166Y012960D01*
X028034Y012936D01*
X027902Y012909D01*
X027772Y012878D01*
X027642Y012843D01*
X027514Y012805D01*
X027387Y012762D01*
X027261Y012716D01*
X027136Y012667D01*
X027013Y012613D01*
X026892Y012556D01*
X026772Y012496D01*
X026654Y012432D01*
X026538Y012365D01*
X024963Y008034D02*
X024859Y007963D01*
X024753Y007895D01*
X024645Y007830D01*
X024535Y007769D01*
X024423Y007712D01*
X024309Y007657D01*
X024194Y007607D01*
X024078Y007559D01*
X023959Y007516D01*
X023840Y007476D01*
X023720Y007440D01*
X023598Y007407D01*
X023475Y007378D01*
X023352Y007353D01*
X023228Y007332D01*
X023103Y007315D01*
X022978Y007301D01*
X022853Y007292D01*
X022727Y007286D01*
X022601Y007284D01*
X022475Y007286D01*
X022349Y007292D01*
X022224Y007301D01*
X022099Y007315D01*
X021974Y007332D01*
X021850Y007353D01*
X021727Y007378D01*
X021604Y007407D01*
X021482Y007440D01*
X021362Y007476D01*
X021243Y007516D01*
X021124Y007559D01*
X021008Y007607D01*
X020893Y007657D01*
X020779Y007712D01*
X020667Y007769D01*
X020557Y007830D01*
X020449Y007895D01*
X020343Y007963D01*
X020239Y008034D01*
X018664Y012365D02*
X018548Y012432D01*
X018430Y012496D01*
X018310Y012556D01*
X018189Y012613D01*
X018066Y012667D01*
X017941Y012716D01*
X017815Y012762D01*
X017688Y012805D01*
X017560Y012843D01*
X017430Y012878D01*
X017300Y012909D01*
X017168Y012936D01*
X017036Y012960D01*
X016904Y012979D01*
X016771Y012995D01*
X016637Y013007D01*
X016503Y013015D01*
X016369Y013019D01*
X016235Y013019D01*
X016101Y013015D01*
X015967Y013007D01*
X015833Y012995D01*
X015700Y012979D01*
X015568Y012960D01*
X015436Y012936D01*
X015304Y012909D01*
X015174Y012878D01*
X015044Y012843D01*
X014916Y012805D01*
X014789Y012762D01*
X014663Y012716D01*
X014538Y012667D01*
X014415Y012613D01*
X014294Y012556D01*
X014174Y012496D01*
X014056Y012432D01*
X013940Y012365D01*
D11*
X015842Y013252D02*
X016763Y013252D01*
X016763Y013866D01*
X016763Y014173D02*
X016763Y014634D01*
X016609Y014787D01*
X016302Y014787D01*
X016149Y014634D01*
X016149Y014173D01*
X016149Y014480D02*
X015842Y014787D01*
X015995Y015094D02*
X015842Y015247D01*
X015842Y015554D01*
X015995Y015708D01*
X016609Y015708D01*
X016763Y015554D01*
X016763Y015247D01*
X016609Y015094D01*
X015995Y015094D01*
X015842Y016015D02*
X016763Y016015D01*
X015842Y016629D01*
X016763Y016629D01*
X016763Y016935D02*
X016763Y017549D01*
X016763Y017242D02*
X015842Y017242D01*
X015842Y014173D02*
X016763Y014173D01*
X016302Y013559D02*
X016302Y013252D01*
X022141Y013339D02*
X022294Y013186D01*
X022141Y013339D02*
X022141Y013646D01*
X022294Y013800D01*
X022448Y013800D01*
X022601Y013646D01*
X022601Y013339D01*
X022755Y013186D01*
X022908Y013186D01*
X023062Y013339D01*
X023062Y013646D01*
X022908Y013800D01*
X022908Y014106D02*
X022294Y014106D01*
X022141Y014260D01*
X022141Y014567D01*
X022294Y014720D01*
X022141Y015027D02*
X023062Y015027D01*
X023062Y015488D01*
X022908Y015641D01*
X022601Y015641D01*
X022448Y015488D01*
X022448Y015027D01*
X022448Y015334D02*
X022141Y015641D01*
X022141Y015948D02*
X022141Y016562D01*
X022141Y016869D02*
X022141Y017483D01*
X022141Y017790D02*
X023062Y017790D01*
X022141Y018403D01*
X023062Y018403D01*
X023062Y017483D02*
X023062Y016869D01*
X022141Y016869D01*
X022601Y016869D02*
X022601Y017176D01*
X023062Y016562D02*
X023062Y015948D01*
X022141Y015948D01*
X022601Y015948D02*
X022601Y016255D01*
X022908Y014720D02*
X023062Y014567D01*
X023062Y014260D01*
X022908Y014106D01*
X028440Y014240D02*
X028440Y014854D01*
X028440Y015161D02*
X029054Y015161D01*
X029361Y015468D01*
X029054Y015774D01*
X028440Y015774D01*
X028440Y016081D02*
X029361Y016081D01*
X029361Y016542D01*
X029207Y016695D01*
X028901Y016695D01*
X028747Y016542D01*
X028747Y016081D01*
X028747Y016388D02*
X028440Y016695D01*
X028901Y015774D02*
X028901Y015161D01*
X029361Y014854D02*
X029361Y014240D01*
X028440Y014240D01*
X028440Y013933D02*
X028747Y013626D01*
X028747Y013779D02*
X028747Y013319D01*
X028440Y013319D02*
X029361Y013319D01*
X029361Y013779D01*
X029207Y013933D01*
X028901Y013933D01*
X028747Y013779D01*
X028901Y014240D02*
X028901Y014547D01*
D12*
X028564Y018833D02*
X029236Y018833D01*
X022937Y018833D02*
X022265Y018833D01*
X016638Y018833D02*
X015966Y018833D01*
D13*
X016088Y019301D02*
X016281Y019301D01*
X016088Y019495D01*
X016088Y019543D01*
X016136Y019592D01*
X016233Y019592D01*
X016281Y019543D01*
X016383Y019543D02*
X016431Y019592D01*
X016576Y019592D01*
X016576Y019301D01*
X016431Y019301D01*
X016383Y019350D01*
X016383Y019543D01*
X016677Y019592D02*
X016871Y019592D01*
X016871Y019301D01*
X016677Y019301D01*
X016774Y019446D02*
X016871Y019446D01*
X016972Y019301D02*
X017165Y019301D01*
X017165Y019592D01*
X022387Y019301D02*
X022581Y019301D01*
X022484Y019301D02*
X022484Y019592D01*
X022581Y019495D01*
X022682Y019543D02*
X022730Y019592D01*
X022875Y019592D01*
X022875Y019301D01*
X022730Y019301D01*
X022682Y019350D01*
X022682Y019543D01*
X022976Y019592D02*
X023170Y019592D01*
X023170Y019301D01*
X022976Y019301D01*
X023073Y019446D02*
X023170Y019446D01*
X023271Y019301D02*
X023465Y019301D01*
X023465Y019592D01*
X028686Y019543D02*
X028686Y019495D01*
X028735Y019446D01*
X028686Y019398D01*
X028686Y019350D01*
X028735Y019301D01*
X028831Y019301D01*
X028880Y019350D01*
X028981Y019350D02*
X028981Y019543D01*
X029029Y019592D01*
X029174Y019592D01*
X029174Y019301D01*
X029029Y019301D01*
X028981Y019350D01*
X028880Y019543D02*
X028831Y019592D01*
X028735Y019592D01*
X028686Y019543D01*
X028735Y019446D02*
X028783Y019446D01*
X029276Y019301D02*
X029469Y019301D01*
X029469Y019592D01*
X029276Y019592D01*
X029372Y019446D02*
X029469Y019446D01*
X029570Y019301D02*
X029764Y019301D01*
X029764Y019592D01*
M02*
