G75*
%MOIN*%
%OFA0B0*%
%FSLAX24Y24*%
%IPPOS*%
%LPD*%
%AMOC8*
5,1,8,0,0,1.08239X$1,22.5*
%
%ADD10C,0.1310*%
%ADD11C,0.0953*%
%ADD12C,0.0585*%
%ADD13C,0.0800*%
%ADD14R,0.0532X0.0375*%
%ADD15R,0.0860X0.0860*%
%ADD16C,0.0860*%
%ADD17C,0.0330*%
D10*
X008851Y004589D03*
X036351Y004589D03*
X036351Y029589D03*
X008851Y029589D03*
D11*
X015121Y011971D03*
X017483Y011971D03*
X017483Y009609D03*
X015121Y009609D03*
X021420Y009609D03*
X023782Y009609D03*
X023782Y011971D03*
X021420Y011971D03*
X027719Y011971D03*
X030081Y011971D03*
X030081Y009609D03*
X027719Y009609D03*
D12*
X028506Y010396D03*
X029294Y010396D03*
X029294Y011184D03*
X028506Y011184D03*
X022995Y011184D03*
X022207Y011184D03*
X022207Y010396D03*
X022995Y010396D03*
X016695Y010396D03*
X015908Y010396D03*
X015908Y011184D03*
X016695Y011184D03*
X024176Y031262D03*
X025176Y031262D03*
X026176Y031262D03*
X027176Y031262D03*
X028176Y031262D03*
X029176Y031262D03*
X030176Y031262D03*
D13*
X041155Y025751D03*
X041055Y024751D03*
X041155Y023751D03*
X041055Y022751D03*
X041155Y021751D03*
D14*
X028900Y019806D03*
X028900Y019097D03*
X022601Y019097D03*
X022601Y019806D03*
X016302Y019806D03*
X016302Y019097D03*
D15*
X013850Y030081D03*
D16*
X015368Y030081D03*
X016606Y030081D03*
X018124Y030081D03*
D17*
X019845Y028506D03*
X019949Y027662D03*
X021420Y028506D03*
X021420Y030081D03*
X025474Y026815D03*
X022365Y026095D03*
X021968Y025563D03*
X026144Y024176D03*
X025555Y022481D03*
X027716Y020275D03*
X028351Y018640D03*
X028467Y018093D03*
X027148Y018093D03*
X025908Y018073D03*
X024688Y018073D03*
X022295Y018455D03*
X021814Y017995D03*
X020475Y018034D03*
X019018Y018054D03*
X017542Y018034D03*
X016105Y017916D03*
X014884Y017463D03*
X013940Y018270D03*
X013011Y018585D03*
X014727Y019451D03*
X015743Y020991D03*
X017089Y021420D03*
X015663Y023288D03*
X017089Y023782D03*
X016302Y025751D03*
X016694Y027100D03*
X016006Y028526D03*
X010790Y022601D03*
X010790Y020632D03*
X012116Y020458D03*
X009215Y020239D03*
X010396Y017877D03*
X010220Y016705D03*
X011231Y016818D03*
X013073Y015770D03*
X013841Y016695D03*
X010396Y014727D03*
X008428Y016302D03*
X007247Y016302D03*
X010396Y012758D03*
X010396Y010790D03*
X012384Y009707D03*
X012227Y008270D03*
X012483Y007050D03*
X010790Y006459D03*
X011971Y004884D03*
X013152Y004097D03*
X014727Y002916D03*
X015829Y003802D03*
X016735Y002837D03*
X018054Y003743D03*
X018644Y002817D03*
X020632Y003703D03*
X020869Y002837D03*
X022995Y002916D03*
X024963Y002916D03*
X026932Y002916D03*
X028506Y002916D03*
X030475Y003310D03*
X032443Y003310D03*
X032443Y004884D03*
X033625Y006066D03*
X032719Y007069D03*
X034806Y007247D03*
X032995Y008605D03*
X032680Y010062D03*
X033113Y010908D03*
X034431Y009851D03*
X034412Y012129D03*
X033408Y012877D03*
X033369Y014058D03*
X032483Y014983D03*
X031991Y015908D03*
X032765Y016623D03*
X032050Y017483D03*
X032349Y018335D03*
X032889Y018424D03*
X033625Y018270D03*
X035406Y019019D03*
X035199Y016695D03*
X035276Y016101D03*
X035271Y015751D03*
X035259Y015321D03*
X035198Y014746D03*
X034806Y013546D03*
X033625Y015514D03*
X030888Y017030D03*
X029884Y017758D03*
X031258Y019043D03*
X030571Y019419D03*
X030723Y019818D03*
X031668Y019963D03*
X030372Y021502D03*
X030761Y021664D03*
X030081Y021814D03*
X029773Y023154D03*
X031695Y026105D03*
X032404Y027483D03*
X034018Y026144D03*
X035974Y025908D03*
X033625Y023782D03*
X034412Y022207D03*
X039530Y021420D03*
X022974Y014939D03*
X022363Y014950D03*
X022601Y014215D03*
X022044Y013114D03*
X023174Y013078D03*
X023179Y008500D03*
X022029Y008452D03*
X022601Y007365D03*
X022836Y006863D03*
X022270Y006853D03*
X010396Y008821D03*
X021636Y020026D03*
X003310Y023782D03*
M02*
