%
M48
M72
T01C0.0130
T02C0.0350
T03C0.0400
T04C0.0472
T05C0.0595
T06C0.1250
%
T01
X10790Y6459
X12483Y7050
X12227Y8270
X12384Y9707
X10396Y8821
X10396Y10790
X10396Y12758
X10396Y14727
X8428Y16302
X7247Y16302
X10220Y16705
X11231Y16818
X10396Y17877
X13011Y18585
X13940Y18270
X14884Y17463
X16105Y17916
X17542Y18034
X19018Y18054
X20475Y18034
X21814Y17995
X22295Y18455
X21636Y20026
X24688Y18073
X25908Y18073
X27148Y18093
X28467Y18093
X28351Y18640
X29884Y17758
X30888Y17030
X32050Y17483
X32765Y16623
X31991Y15908
X32483Y14983
X33625Y15514
X35259Y15321
X35271Y15751
X35276Y16101
X35199Y16695
X33625Y18270
X32889Y18424
X32349Y18335
X31258Y19043
X30571Y19419
X30723Y19818
X31668Y19963
X30372Y21502
X30761Y21664
X30081Y21814
X29773Y23154
X27716Y20275
X25555Y22481
X26144Y24176
X25474Y26815
X22365Y26095
X21968Y25563
X19949Y27662
X19845Y28506
X21420Y28506
X21420Y30081
X16694Y27100
X16302Y25751
X17089Y23782
X15663Y23288
X17089Y21420
X15743Y20991
X14727Y19451
X12116Y20458
X10790Y20632
X9215Y20239
X10790Y22601
X13841Y16695
X13073Y15770
X22363Y14950
X22974Y14939
X22601Y14215
X22044Y13114
X23174Y13078
X23179Y8500
X22029Y8452
X22601Y7365
X22836Y6863
X22270Y6853
X18054Y3743
X18644Y2817
X16735Y2837
X15829Y3802
X14727Y2916
X13152Y4097
X11971Y4884
X20632Y3703
X20869Y2837
X22995Y2916
X24963Y2916
X26932Y2916
X28506Y2916
X30475Y3310
X32443Y3310
X32443Y4884
X33625Y6066
X32719Y7069
X34806Y7247
X32995Y8605
X32680Y10062
X33113Y10908
X34431Y9851
X34412Y12129
X33408Y12877
X33369Y14058
X34806Y13546
X35198Y14746
X35406Y19019
X34412Y22207
X33625Y23782
X35974Y25908
X34018Y26144
X32404Y27483
X31695Y26105
X39530Y21420
X16006Y28526
X3310Y23782
T02
X15908Y11184
X16695Y11184
X16695Y10396
X15908Y10396
X22207Y10396
X22995Y10396
X22995Y11184
X22207Y11184
X28506Y11184
X29294Y11184
X29294Y10396
X28506Y10396
X28176Y31262
X27176Y31262
X26176Y31262
X25176Y31262
X24176Y31262
X29176Y31262
X30176Y31262
T03
X41155Y25751
X41055Y24751
X41155Y23751
X41055Y22751
X41155Y21751
T04
X18124Y30081
X16606Y30081
X15368Y30081
X13850Y30081
T05
X15121Y11971
X17483Y11971
X17483Y9609
X15121Y9609
X21420Y9609
X23782Y9609
X23782Y11971
X21420Y11971
X27719Y11971
X30081Y11971
X30081Y9609
X27719Y9609
T06
X8851Y4589
X36351Y4589
X36351Y29589
X8851Y29589
M30
